# xmcd CD database file generated by Grip 2.96
# 
# Track frame offsets:
#       182
#       18052
#       41490
#       65055
#       80367
#       100622
#       113110
#       124575
#       144050
#       154430
#       167450
#       184725
#       212247
#       222190
# 
# Disc length: 3213 seconds
# 
# Revision: 0
# Processed by: cddbd v1.4PL0 Copyright (c) Steve Scherf et al.
# Submitted via: Grip 2.96
# 
DISCID=b40c8b0e
DTITLE=Chuck Berry - The Magic Collection
DYEAR=1900
DGENRE=
TTITLE0=Hail, Hail Rock and Roll
TTITLE1=In The Wee Wee Hours
TTITLE2=Johnny B. Goode
TTITLE3=Carol
TTITLE4=Hootchie Coochie Man
TTITLE5=Sweet Little Sixteen
TTITLE6=Rock and Roll Music
TTITLE7=My Ding-A-Ling
TTITLE8=Maybelline
TTITLE9=Too Much Monkey Business
TTITLE10=Nadine
TTITLE11=Reelin' and Rockin'
TTITLE12=Johny B. Goode (Reprise)
TTITLE13=Bonsior Chéri
EXTD=
EXTT0=
EXTT1=
EXTT2=
EXTT3=
EXTT4=
EXTT5=
EXTT6=
EXTT7=
EXTT8=
EXTT9=
EXTT10=
EXTT11=
EXTT12=
EXTT13=
PLAYORDER=
